<svg width="174" height="34" viewBox="0 0 174 34" fill="none" xmlns="http://www.w3.org/2000/svg">
<g opacity="0.8">
<path fill-rule="evenodd" clip-rule="evenodd" d="M83.7101 33.5545H72.7943L74.7535 22.9816H85.6694L83.7101 33.5545ZM17.9353 12.9653L16.9557 18.669H23.2533L22.5536 22.8425C22.4136 23.5381 21.9938 25.764 21.294 26.3204C20.7342 26.7378 20.0345 26.8769 19.3348 26.8769H15.9761C14.1568 26.8769 12.4774 26.4595 11.6377 24.651C10.7981 22.7034 11.4978 18.669 11.7777 16.8605C12.0576 15.052 12.7573 11.7132 14.2967 9.7656C14.9964 8.79179 15.9761 8.0962 17.0956 7.67886C18.3552 7.26151 19.6147 6.98327 20.7342 7.12239H33.1895L37.5278 0.166582H17.0956C16.116 0.166582 11.6377 0.166582 8.13908 2.39244C3.24095 5.59211 1.70154 11.7132 0.721918 16.9996C-0.117761 21.4514 -0.817492 27.4334 2.40127 30.633C4.22058 32.5807 7.71924 33.4153 10.3782 33.4153H26.3321C27.7316 33.4153 28.9911 32.998 30.1107 32.3024C31.3702 31.3286 32.2099 29.9374 32.4897 28.4072L34.309 18.5299L34.449 17.9735L35.1487 14.3564L35.4286 12.9653H17.9353ZM54.8812 12.9653L53.9015 18.669H60.1991L59.4994 22.8425C59.3594 23.5381 58.9396 25.764 58.2399 26.3204C57.6801 26.7378 56.9804 26.8769 56.2806 26.8769H53.2018C51.3825 26.8769 49.7031 26.4595 48.8635 24.651C48.0238 22.7034 48.7235 18.669 49.0034 16.8605C49.2833 15.052 49.983 11.7132 51.5224 9.7656C52.2222 8.79179 53.2018 8.0962 54.3214 7.67886C55.4409 7.26151 56.5605 6.98327 57.82 6.98327H70.2753L74.6136 0.0274658H54.0415C53.0619 0.0274658 48.5836 0.0274658 45.0849 2.25332C40.0468 5.453 38.6474 11.5741 37.6678 16.8605C36.8281 21.3122 36.1283 27.2942 39.3471 30.4939C41.1664 32.4415 44.6651 33.2762 47.3241 33.2762H63.2779C64.6774 33.2762 65.9369 32.8589 67.0565 32.1633C68.316 31.1895 69.1557 29.7983 69.4356 28.2681L71.2549 18.3908L71.3948 17.8343L72.0946 14.2173L72.3745 12.8262L54.8812 12.9653Z" fill="white"/>
<path fill-rule="evenodd" clip-rule="evenodd" d="M114.918 33.5546C113.519 33.5546 112.119 33.4155 111 32.4416C109.74 31.1896 109.88 29.7984 110.16 28.2682L114.218 5.31399C114.358 3.78371 115.198 2.39255 116.318 1.55785C117.577 0.584036 119.116 0.166687 120.656 0.166687H142.627L138.429 7.1225H127.233C126.674 7.1225 125.974 7.26161 125.414 7.53984C124.994 7.95719 124.714 8.51366 124.574 9.20924L123.875 12.9654H137.449L136.47 18.6691H122.895L121.775 25.2076C121.775 25.4858 121.635 25.6249 121.775 25.9032C121.775 26.1814 121.915 26.3205 122.055 26.4596C122.615 26.877 123.315 27.0161 124.015 26.877H139.689L138.569 33.5546H114.918ZM147.246 33.5546L152.004 6.98338H143.887L145.007 0.166687H173.835L169.497 6.98338H162.92L158.162 33.5546H147.246ZM107.221 14.7739C108.76 13.3827 109.6 11.5742 109.88 9.62659C110.3 7.26161 110.58 4.34017 109.04 2.39255C107.501 0.444919 104.702 0.166687 102.323 0.166687H78.6719L77.6923 5.59222L75.3132 18.6691H95.1856C95.6055 18.6691 96.0253 18.6691 96.4451 18.8083C96.865 18.9474 97.2848 19.2256 97.4248 19.643C97.7047 20.0603 97.7047 20.4776 97.5647 21.0341L97.0049 24.3729C96.865 25.0685 96.5851 25.7641 96.0253 26.3205C95.7454 26.5988 95.0457 27.0161 92.9465 27.0161H89.7277L85.5293 33.6937H96.5851C99.524 33.6937 102.043 33.6937 104.562 31.3287C107.081 29.1029 107.501 26.4596 107.781 24.3729C108.201 22.2862 108.481 20.1994 106.941 18.53C105.961 17.5562 104.702 16.8606 103.163 16.8606V16.7215C104.982 16.3042 106.241 15.7477 107.221 14.7739ZM99.1041 9.07012C99.1041 9.07012 99.1041 9.20924 99.1041 9.07012L98.8242 10.4613V10.6004C98.8242 10.6004 98.8242 10.6004 98.8242 10.7395C98.6843 11.1569 98.5443 11.7133 98.2644 12.1307C97.8446 12.548 97.4248 12.6871 97.0049 12.9654C96.5851 13.1045 96.0253 13.1045 95.4655 13.1045H87.3486L87.6285 11.7133L87.9084 10.3222C87.9084 10.1831 87.9084 10.0439 87.9084 9.90482L88.0484 8.93101C88.0484 8.65277 88.0484 8.37454 88.1883 8.09631C88.3282 7.81808 88.4682 7.67896 88.7481 7.40073C89.1679 7.1225 89.7277 6.98338 90.2875 6.98338H96.5851C97.2848 6.98338 98.4044 6.98338 98.9642 7.67896C99.1041 8.09631 99.2441 8.65277 99.1041 9.07012Z" fill="white"/>
</g>
</svg>
