<svg width="205" height="38" viewBox="0 0 205 38" fill="none" xmlns="http://www.w3.org/2000/svg">
  <path d="M0.761719 37.4368V19.0029L10.0924 28.2199L0.761719 37.4368Z" fill="white"/>
  <path d="M0.761719 0V9.48244L14.8154 23.3647L21.8127 16.4615L21.8507 30.5714L28.678 37.285V6.44806H21.8127L14.7578 13.8254L0.761719 0Z" fill="white"/>
  <path fill-rule="evenodd" clip-rule="evenodd" d="M31.9779 31.2162V23.0613L45.7843 9.36865V7.69974H58.5287V31.2162H51.891V25.1474H39.4121L33.3813 31.2162H31.9779ZM45.405 19.1925H51.8152V12.8203L45.405 19.1925Z" fill="white"/>
  <path fill-rule="evenodd" clip-rule="evenodd" d="M125.589 31.2162V23.0613L139.395 9.36865V7.69974H152.139V31.2162H145.502V25.1474H133.023L126.992 31.2162H125.589ZM139.016 19.1925H145.426V12.8203L139.016 19.1925Z" fill="white"/>
  <path d="M62.3976 7.69974H69.0353V31.2162H62.3976V7.69974Z" fill="white"/>
  <path d="M73.0179 31.2162H79.6556V19.031L91.8408 31.2162H95.5102V7.69974H88.8725V18.8608L77.7115 7.69974L73.0179 7.69974V31.2162Z" fill="white"/>
  <path d="M189.614 7.69974H196.252V37.3229L189.614 30.761V7.69974Z" fill="white"/>
  <path d="M181.725 13.5409V7.69974L204.255 7.69974V13.5409L181.725 13.5409Z" fill="white"/>
  <path d="M99.4929 12.403V26.5129C99.4929 29.1105 101.599 31.2162 104.196 31.2162H121.871V25.375H106.131V13.5409L121.871 13.5409V7.69974H104.196C101.599 7.69974 99.4929 9.80547 99.4929 12.403Z" fill="white"/>
  <path d="M178.842 26.2095V20.0648C178.842 18.1376 177.28 16.5753 175.352 16.5753H162.76V13.5409H173.266L179.107 7.69974L161.167 7.69974C158.402 7.69974 156.16 9.94133 156.16 12.7065V18.3201C156.16 20.5825 157.994 22.4165 160.256 22.4165H172.09V25.375H161.622L155.781 31.2162H173.835C176.6 31.2162 178.842 28.9746 178.842 26.2095Z" fill="white"/>
</svg>
