<?xml version="1.0" encoding="utf-8"?>
<!-- Generator: Adobe Illustrator 23.0.0, SVG Export Plug-In . SVG Version: 6.00 Build 0)  -->
<svg version="1.1" id="Layer_1" xmlns="http://www.w3.org/2000/svg" xmlns:xlink="http://www.w3.org/1999/xlink" x="0px" y="0px"
	 viewBox="0 0 184.1 164.2" style="enable-background:new 0 0 184.1 164.2;" xml:space="preserve">
<style type="text/css">
	.st0{fill:#FFFFFF;}
</style>
<path class="st0" d="M53.3,124.9c0-0.1-0.1-0.2-0.2-0.2c-0.5,0.2-1.1,0.3-1.5,0.6c1.2,3.6,2.4,7.1,3.6,10.7c0.2,0.9-0.3,1.9-1.1,2.2
	c-0.8,0.4-2,0-2.4-0.8c-1.2-3.6-2.4-7.2-3.7-10.8c-0.5-0.1-1,0.3-1.5,0.4c-0.3,0-0.2,0.3-0.1,0.5c1.2,3.5,2.3,7,3.5,10.5
	c0.6,1.8,2.8,2.7,4.5,2.1c1.9-0.5,3.1-2.7,2.5-4.6C55.7,132,54.5,128.5,53.3,124.9"/>
<path class="st0" d="M66.6,129.3c-1.7-0.7-3.4-1.5-5.1-2.2c-0.9-0.5-1.2-1.8-0.6-2.6c0.6-1,2.2-1.1,2.9-0.2c0.2,0.2,0.3,0.7,0.7,0.5
	c0.5-0.2,1.1-0.2,1.4-0.6c-0.6-1.9-2.8-2.9-4.6-2.3c-1.9,0.5-3,2.8-2.4,4.6c0.4,0.9,1,1.9,1.9,2.3c1.7,0.7,3.4,1.5,5.1,2.2
	c1,0.7,1,2.4-0.1,3c-0.9,0.8-2.4,0.2-2.8-0.8c-0.6,0.1-1.2,0.4-1.7,0.6c0.4,1.7,2.4,2.8,4.1,2.5c1.7-0.2,3-1.7,3.2-3.4
	C68.7,131.5,68,129.9,66.6,129.3"/>
<path class="st0" d="M42.5,130.3c-0.2-0.6-0.3-1.3-0.6-1.7c-2.3,0.7-4.6,1.5-6.9,2.3c0,0.6,0.3,1.2,0.5,1.7c0.9-0.1,1.8-0.6,2.6-0.8
	c1.4,4.1,2.7,8.3,4.2,12.3c0.6-0.2,1.1-0.4,1.7-0.6c-1.3-4.1-2.8-8.2-4.1-12.4C40.7,130.9,41.6,130.6,42.5,130.3"/>
<path class="st0" d="M42.8,56.6c-0.1-0.1-0.2-0.2-0.4-0.1c-0.1,0.1-0.1,0.1-0.1,0.2c0,12.9-0.1,25.8-0.1,38.7c0,0.2,0.2,0.3,0.3,0.5
	c5.2,6.8,10.4,13.5,15.6,20.3c0.1,0.2,0.3,0.5,0.5,0.3c8.1-2.7,16.2-5.5,24.3-8.2c0.2,0,0.3-0.3,0.1-0.4
	C69.6,90.8,56.2,73.7,42.8,56.6"/>
<path class="st0" d="M19.1,136.3c0.9,3.1,2,6.1,3,9.1c-2.2-2.6-4.4-5.3-6.6-7.9c-0.5,0.1-1.3,0.3-1.7,0.6c1.6,4.7,3.1,9.4,4.8,14
	c0.6-0.2,1.1-0.4,1.7-0.6c-0.9-3-2-6-3-9.1c2.2,2.6,4.4,5.2,6.6,7.8c0.6-0.1,1.2-0.3,1.7-0.6c-1.6-4.7-3.1-9.4-4.8-14.1
	C20.2,135.9,19.7,136,19.1,136.3"/>
<path class="st0" d="M144.4,87.5c8.1-2.7,16.1-5.5,24.2-8.2c0.1,0,0.2-0.1,0.2-0.2c0.1-22.3,0.2-44.6,0.3-66.9
	c0.1-0.2-0.1-0.5-0.4-0.3c-8.4,2.9-16.9,5.7-25.3,8.6c0.1,22.3,0.4,44.5,0.6,66.8C144,87.5,144.2,87.6,144.4,87.5"/>
<path class="st0" d="M115.6,52.7c8.2,10.5,16.4,21.1,24.5,31.6c0.1,0.2,0.5,0.1,0.4-0.1c-0.2-20.8-0.3-41.6-0.5-62.3
	c0.1-0.2-0.2-0.4-0.4-0.3c-8.1,2.7-16.2,5.5-24.3,8.2c-0.1,0-0.2,0.1-0.2,0.2c0,7.4,0.1,14.8,0.1,22.2
	C115.2,52.4,115.5,52.5,115.6,52.7"/>
<path class="st0" d="M14.3,131.8c8.1-2.7,16.2-5.5,24.4-8.2c0.3-0.1,0.1-0.5,0.2-0.8c0.1-22.1,0.2-44.3,0.3-66.4
	c0-0.2-0.2-0.3-0.4-0.2c-8.4,2.8-16.8,5.7-25.1,8.5c-0.2,0-0.2,0.2-0.2,0.3c0.2,22.2,0.3,44.5,0.5,66.7
	C14,131.8,14.2,131.8,14.3,131.8"/>
<path class="st0" d="M83.4,40.8c-8,2.7-15.9,5.4-23.9,8.1c-0.2,0-0.2,0.3-0.2,0.4c0.2,8,0.4,15.9,0.6,23.9c8,10.2,16,20.5,24,30.7
	c0.1,0.2,0.4,0.2,0.4-0.1C84.2,82.9,84,61.9,83.8,41C83.8,40.8,83.6,40.8,83.4,40.8"/>
<path class="st0" d="M145.8,107.3c-0.5-1.5-1-2.9-1.5-4.4c1.4-0.5,2.9-0.9,4.3-1.5c0-0.6-0.3-1.2-0.5-1.7c-1.5,0.4-2.9,1-4.4,1.4
	c-0.5-1.5-1-2.9-1.5-4.4c1.7-0.6,3.5-1.2,5.2-1.8c0-0.6-0.3-1.2-0.5-1.7c-2.3,0.7-4.5,1.5-6.8,2.3c-0.2,0-0.2,0.2-0.1,0.4
	c1.6,4.6,3,9.2,4.7,13.7c2.3-0.8,4.7-1.5,7-2.4c-0.2-0.6-0.3-1.2-0.6-1.7C149.3,106.1,147.6,106.7,145.8,107.3"/>
<path class="st0" d="M99,109.4c0.4,3,0.8,5.9,1.2,8.8c-0.1,0.1-0.3,0.1-0.4,0c-1.4-2.4-2.7-4.8-4.1-7.2c-0.3-1-1.4,0-2,0.1
	c0,0.2,0.1,0.3,0.2,0.5c2.4,4.2,4.8,8.5,7.2,12.7c0.5,0,1.2-0.3,1.7-0.6c-0.7-5-1.3-9.9-2-14.9C100.2,108.9,99.5,109.1,99,109.4"/>
<path class="st0" d="M182.4,6.2c-1.1-2.3-2.8-4.1-4.8-5.1c-1.4-0.7-3-1.1-4.8-1.1c-0.4,0-0.9,0-1.4,0.1c-1.4,0.1-2.9,0.5-4.6,1.1
	C145.9,8,124.9,14.8,104,21.7c-30.1,9.8-60.1,19.6-90.2,29.5c-4.4,1.5-8.1,4.2-10.4,7.6C1,62.2-0.2,66.5-0.2,71.2l0.5,32.3
	c0.2,15.1,0.5,30.2,0.7,45.2c0.1,5,1.3,8.8,3.5,11.5c1.7,2,4,3.3,6.7,3.7c0.7,0.1,1.4,0.2,2.2,0.2c1.9,0,4-0.4,6.2-1.2
	c30.1-10.2,60.2-20.5,90.2-30.7l61.6-21c3.2-1.1,7.5-3.4,9.8-7.7c2.6-4.7,2.6-10.2,2.6-15.1c0.1-24.1,0.3-48.1,0.4-72.2
	C184.2,13.3,184,9.6,182.4,6.2 M181.9,88.6c0,4.8,0,9.9-2.4,14.2c-1.8,3.4-5.3,5.6-8.9,6.9c-50.6,17.2-101.2,34.4-151.8,51.7
	c-2.4,0.9-4.9,1.4-7.5,1c-2.2-0.4-4.2-1.5-5.6-3.1c-2.4-2.9-3-6.8-3.1-10.4C2.4,122.9,2,97.1,1.6,71.2c0-4,1-8.1,3.3-11.4
	c2.3-3.3,5.8-5.7,9.5-7c51-16.7,102-33.3,153-50c1.4-0.5,2.8-0.9,4.2-1c1.8-0.2,3.6,0,5.2,0.8c1.8,0.9,3.2,2.5,4,4.3
	c1.3,3,1.6,6.3,1.5,9.5C182.2,40.5,182.1,64.5,181.9,88.6"/>
<path class="st0" d="M169,99.5c-0.5-1.5-1-2.9-1.5-4.4c1.4-0.5,2.8-0.9,4.2-1.4c0.2-0.5-0.2-1.3-0.5-1.8c-1.4,0.5-2.9,1-4.3,1.4
	c-0.5-1.5-1-2.9-1.5-4.4c1.8-0.6,3.5-1.2,5.3-1.8c-0.1-0.6-0.3-1.2-0.6-1.7c-2.3,0.7-4.6,1.5-6.8,2.3c-0.2,0-0.1,0.3-0.1,0.4
	c1.5,4.5,3,9.1,4.6,13.6c2.3-0.7,4.7-1.5,7-2.3c0-0.6-0.3-1.2-0.5-1.8C172.6,98.2,170.8,98.9,169,99.5"/>
<path class="st0" d="M98.7,36.2c-0.2-0.2-0.3-0.5-0.6-0.4c-3.6,1.2-7.2,2.4-10.9,3.6c-0.2,0-0.2,0.2-0.2,0.3c0.1,7,0.1,14,0.2,20.9
	c0,0.1,0,0.2,0.1,0.3c4.1,5.4,8.2,10.8,12.2,16.2c-4,1.4-8,2.8-11.9,4.2c-0.1,0-0.1,0.2-0.1,0.3c0,4.2,0.1,8.4,0.1,12.6
	c0,0.2,0.2,0.3,0.3,0.3c6.6-2.2,13.1-4.5,19.7-6.7c2.4,3.1,4.7,6.3,7.1,9.4c0.1,0.1,0.2,0.1,0.3,0.1c8.2-2.8,16.3-5.5,24.5-8.3
	c0.1-0.3-0.2-0.5-0.3-0.7C125.7,71,112.2,53.6,98.7,36.2"/>
<path class="st0" d="M113.6,118.2c-1.2-3.5-2.4-7-3.6-10.5c0.8-0.3,1.8-0.5,2.6-0.9c-0.1-0.6-0.3-1.2-0.6-1.7
	c-2.3,0.7-4.6,1.5-7,2.3c0.1,0.6,0.3,1.2,0.6,1.7c0.9-0.2,1.7-0.6,2.6-0.8c1.2,3.5,2.4,7,3.6,10.5c-0.9,0.3-1.7,0.6-2.6,0.9
	c0.1,0.6,0.3,1.2,0.6,1.7c2.3-0.7,4.7-1.5,6.9-2.3c-0.1-0.6-0.3-1.2-0.6-1.7C115.3,117.5,114.5,117.9,113.6,118.2"/>
<path class="st0" d="M122,101.6c0.9,3.1,2,6.1,3,9.1c-2.2-2.6-4.4-5.3-6.7-7.9c-0.5,0.2-1.3,0.3-1.7,0.7c1.6,4.7,3.1,9.4,4.8,14
	c0.6-0.2,1.1-0.4,1.7-0.6c-0.9-3-2-6-3-9.1c2.2,2.6,4.4,5.2,6.6,7.8c0.5-0.1,1.3-0.3,1.7-0.6c-1.6-4.7-3.1-9.4-4.8-14
	C123.1,101.2,122.5,101.4,122,101.6"/>
<path class="st0" d="M137.3,108.2c0.2,1-0.3,2.2-1.4,2.4c-0.8,0.2-1.9-0.2-2.2-1.1c-0.8-2.4-1.6-4.7-2.4-7.1c-0.3-0.8,0-1.8,0.7-2.2
	c1-0.7,2.4-0.2,2.8,0.9c0.6-0.1,1.2-0.3,1.7-0.5c-0.5-1.9-2.8-3-4.6-2.3c-1.9,0.5-3,2.7-2.4,4.5c0.8,2.5,1.7,4.9,2.5,7.4
	c0.6,1.8,2.9,2.8,4.7,2.1c1.9-0.6,3.1-2.9,2.3-4.7C138.4,107.8,137.8,108,137.3,108.2"/>
<path class="st0" d="M161.2,103.9c0.7,0,1.4-0.4,2-0.6c-1.4-1.9-3-3.8-4.5-5.7c2.1-1.9,1.5-5.6-1-6.9c-0.7-0.4-1.5-0.7-2.3-0.5
	c-1.3,0.4-2.6,0.9-3.9,1.3c-0.3,0.1-0.1,0.3,0,0.5c1.6,4.5,3,9.2,4.7,13.7c0.6-0.2,1.1-0.4,1.7-0.6c-0.6-2.1-1.4-4.1-2-6.2
	c0.3-0.2,0.7-0.3,1.1-0.4C158.4,100.4,159.8,102.2,161.2,103.9 M155.3,97.2c-0.5-1.5-1-2.9-1.5-4.4c0.5-0.2,1-0.3,1.5-0.5
	c1.1-0.3,2.4,0.4,2.7,1.5c0.4,1-0.1,2.4-1.1,2.8C156.4,96.9,155.8,97,155.3,97.2"/>
<path class="st0" d="M36.9,145.6c-2.4-4.2-4.8-8.5-7.3-12.8c-0.5,0-1.2,0.3-1.6,0.5c0.7,5,1.3,10,2,14.9c0.6-0.2,1.1-0.4,1.7-0.6
	c0.1-0.6-0.2-1.3-0.1-1.9c0.9-0.4,1.8-0.7,2.8-0.9c0.4,0.4,0.6,1.1,1,1.6c0.5-0.1,1-0.3,1.6-0.5C37.1,145.9,37,145.7,36.9,145.6
	 M31.3,143.9c-0.3-1.7-0.5-3.4-0.7-5.1c0.3-0.2,0.4,0.3,0.6,0.5c0.7,1.3,1.6,2.6,2.2,4C32.7,143.5,32,143.7,31.3,143.9"/>
<path class="st0" d="M81.1,113c-2.7,0.2-5.3,1.6-7.1,3.6c-1.7,1.9-2.7,4.5-2.7,7.1c0,2.4,0.8,4.9,2.4,6.7c1.5,1.8,3.6,3.2,5.9,3.7
	c2.6,0.6,5.5,0.2,7.9-1.2c1.9-1.1,3.5-2.8,4.4-4.8c1.2-2.5,1.3-5.5,0.4-8.1c-0.8-2.2-2.2-4.1-4.1-5.3C86,113.4,83.5,112.8,81.1,113
	 M81.3,112.4c2.5-0.2,5.1,0.6,7.2,2c1.9,1.3,3.4,3.3,4.2,5.4c1,2.6,0.9,5.7-0.2,8.2c-1.7,4-5.8,6.9-10.2,6.9
	c-2.5,0.1-5.1-0.8-7.1-2.3c-1.9-1.4-3.3-3.4-4-5.7c-0.8-2.4-0.6-5.2,0.3-7.5C73,115.5,77,112.6,81.3,112.4"/>
<path class="st0" d="M81.2,114.6c0-0.5,0.5-0.9,1-0.8c0.4,0.1,0.8,0.5,0.7,0.9c-0.1,0-0.3,0-0.4,0c0-0.5-0.8-0.6-0.9-0.1
	c0,0.7,0,1.3,0,2c0.1,0.5,0.9,0.4,0.9-0.1h-0.4c0-0.2,0-0.3,0-0.4c0.3,0,0.6,0,0.9,0c0.1,0.4,0,1-0.5,1.2c-0.5,0.3-1.3-0.1-1.3-0.7
	C81.2,115.9,81.2,115.2,81.2,114.6"/>
<path class="st0" d="M77.9,114.7c0.5-0.2,1.1-0.4,1.7-0.6c0.1,0.1,0.1,0.3,0.2,0.4c-0.2,0.1-0.4,0.1-0.6,0.2
	c0.3,0.8,0.6,1.7,0.9,2.5c0.2-0.1,0.4-0.2,0.6-0.2c0.1,0.1,0.1,0.3,0.1,0.4c-0.5,0.2-1.1,0.4-1.7,0.6c-0.1-0.1-0.1-0.3-0.2-0.4
	c0.2-0.1,0.4-0.2,0.6-0.2c-0.3-0.8-0.6-1.7-0.9-2.5c-0.2,0.1-0.4,0.2-0.6,0.2C78,114.9,77.9,114.8,77.9,114.7"/>
<path class="st0" d="M84.3,116.6c-0.2,0.2,0.3,0.2,0.4,0.3c0.1-0.4,0.2-0.9,0.1-1.2C84.6,116,84.5,116.3,84.3,116.6 M83.3,117.4
	c0.6-1,1.2-2.1,1.8-3.1c0.1,0,0.3,0.1,0.4,0.1c-0.2,1.2-0.3,2.4-0.5,3.6c-0.1,0-0.3-0.1-0.4-0.1c0-0.1,0-0.3,0.1-0.4
	c-0.2-0.1-0.4-0.2-0.7-0.2C83.9,117.5,83.6,117.6,83.3,117.4"/>
<path class="st0" d="M85.5,118c0.7-0.9,1.4-1.8,2.1-2.7c0.1,0.1,0.3,0.2,0.4,0.3c0,0.3-0.1,0.5-0.1,0.8c0.2-0.1,0.5-0.2,0.7-0.3
	c0.1,0.1,0.3,0.2,0.4,0.3c-0.7,0.9-1.5,1.9-2.2,2.8c-0.1-0.1-0.2-0.2-0.3-0.3c0.6-0.7,1.1-1.4,1.7-2.1c-0.3,0.1-0.5,0.2-0.8,0.3
	c0-0.3,0.1-0.6,0.1-0.9c-0.6,0.7-1.1,1.4-1.7,2.1C85.6,118.3,85.3,118.2,85.5,118"/>
<path class="st0" d="M75.1,116.5c0.4-0.4,0.9-0.7,1.4-1.1c0.1,0.1,0.2,0.2,0.3,0.3c-0.2,0.1-0.3,0.3-0.5,0.4
	c0.6,0.8,1.3,1.6,1.9,2.4c-0.1,0.1-0.2,0.2-0.3,0.3c-0.7-0.8-1.3-1.6-2-2.4c-0.2,0.1-0.3,0.3-0.5,0.4
	C75.3,116.8,75.2,116.6,75.1,116.5"/>
<path class="st0" d="M89.7,118c0.1-0.1,0.2-0.2,0.4-0.2c0.3,0.5,0.6,1,0.9,1.5c-0.1,0.1-0.2,0.2-0.4,0.2c-0.1-0.2-0.2-0.4-0.4-0.6
	c-0.8,0.5-1.5,0.9-2.3,1.4c0.1,0.2,0.2,0.4,0.3,0.6c-0.1,0.1-0.2,0.2-0.4,0.2c-0.3-0.5-0.6-1-0.9-1.5c0.1-0.1,0.2-0.2,0.4-0.2
	c0.1,0.2,0.2,0.4,0.3,0.6c0.8-0.5,1.5-0.9,2.3-1.4C89.9,118.4,89.8,118.2,89.7,118"/>
<path class="st0" d="M73.5,118.7c0.1-0.1,0.2-0.3,0.3-0.4c0.8,0.6,1.7,1.2,2.5,1.8c0.3-0.4,0.5-0.7,0.8-1.1c0.1,0.1,0.3,0.2,0.4,0.3
	c-0.3,0.5-0.7,1-1,1.4C75.4,120,74.4,119.3,73.5,118.7"/>
<path class="st0" d="M72.7,120.2c0.9,0.2,1.7,0.5,2.6,0.7c0.4,0.1,0.7,0.6,0.6,1.1c-0.1,0.4-0.6,0.8-1,0.7c-0.9-0.2-1.8-0.5-2.7-0.7
	c0-0.1,0.1-0.3,0.1-0.4c0.9,0.2,1.8,0.5,2.7,0.7c0.4,0,0.6-0.6,0.2-0.8c-0.9-0.3-1.8-0.5-2.7-0.8C72.6,120.5,72.7,120.3,72.7,120.2"
	/>
<path class="st0" d="M88.2,121.6c1.2-0.2,2.3-0.5,3.5-0.7c0,0.1,0.1,0.3,0.1,0.4c-0.7,0.4-1.4,0.9-2,1.3c0.7-0.2,1.5-0.3,2.2-0.5
	c0,0.1,0.1,0.3,0.1,0.4c-1.2,0.2-2.3,0.5-3.5,0.7c0-0.1-0.1-0.3-0.1-0.4c0.7-0.4,1.4-0.9,2-1.3c-0.7,0.1-1.5,0.3-2.2,0.4
	C88.2,121.8,88.2,121.7,88.2,121.6"/>
<path class="st0" d="M78.5,121.6c0.6,0,1.1,0,1.7,0c0.1,0.1,0,0.3,0,0.4c-0.2,0-0.4,0-0.7,0c0,1,0,2.1,0,3.1c-0.1,0-0.3,0-0.4,0
	c0-1,0-2.1,0-3.1c-0.2,0-0.4,0-0.7,0C78.5,121.9,78.4,121.8,78.5,121.6"/>
<path class="st0" d="M80.9,121.6c0.1,0,0.3,0,0.5,0c0,0.5,0,1,0,1.5c0.3,0,0.6,0,0.9,0c0-0.5,0-1,0-1.5c0.1,0,0.3,0,0.4,0v3.5h-0.4
	v-1.5c-0.3,0-0.6,0-0.9,0v1.5c-0.2,0-0.3,0-0.5,0V121.6z"/>
<path class="st0" d="M83.4,121.8c0,0,0-0.1,0.1-0.1h1.7c0,0.1,0,0.3,0,0.4c-0.4,0-0.9,0-1.3,0c0,0.4,0,0.7,0,1.1c0.4,0,0.7,0,1.1,0
	v0.4c-0.4,0-0.7,0-1.1,0v1.1c0.4,0,0.9,0,1.3,0c0,0.1,0,0.3,0,0.4c-0.6,0-1.2,0-1.8,0C83.4,124,83.4,122.9,83.4,121.8"/>
<path class="st0" d="M72.1,123.6c1.2-0.1,2.4-0.2,3.5-0.3c0,0.1,0,0.3,0,0.4c-0.9,0.1-1.8,0.1-2.7,0.2c0.2,0.1,0.5,0.3,0.8,0.4
	c-0.2,0.2-0.5,0.3-0.7,0.5c0.9-0.1,1.8-0.1,2.7-0.2c0,0.1,0,0.3,0,0.4c-1.2,0.1-2.3,0.2-3.5,0.3c0-0.2,0-0.3,0-0.5
	c0.2-0.1,0.4-0.3,0.6-0.4c-0.2-0.1-0.5-0.2-0.7-0.3C72.1,123.9,72.1,123.8,72.1,123.6"/>
<path class="st0" d="M88.5,125.2c-0.4-0.5,0.1-1.4,0.8-1.4c0.7,0.1,1.3,0.2,1.9,0.3c0.5,0.1,0.8,0.7,0.6,1.2c-0.1,0.4-0.6,0.6-1,0.5
	c0-0.1,0-0.3,0.1-0.4c0.5,0.1,0.7-0.7,0.2-0.9c-0.7-0.1-1.3-0.2-2-0.3c-0.5,0.1-0.5,0.8,0,0.9c0-0.1,0-0.3,0.1-0.4
	c0.1,0,0.3,0,0.4,0.1c0,0.3-0.1,0.6-0.1,0.9C89.2,125.7,88.7,125.6,88.5,125.2"/>
<path class="st0" d="M77.3,126.8c0.1-0.1,0.3-0.3,0.4-0.4c0.5,0.6,1,1.1,1.5,1.7c-0.1,0.1-0.3,0.3-0.4,0.4c-0.2-0.2-0.4-0.4-0.6-0.6
	c-1,0.9-1.9,1.8-2.9,2.7c-0.1-0.1-0.3-0.3-0.4-0.4c1-0.9,1.9-1.8,2.9-2.7C77.6,127.2,77.4,127,77.3,126.8"/>
<path class="st0" d="M74.6,126.7c0.6-0.3,1,0.7,0.4,0.9C74.4,127.9,74,126.9,74.6,126.7"/>
<path class="st0" d="M89,126.7c0.6-0.3,1,0.7,0.4,0.9C88.8,127.9,88.4,126.9,89,126.7"/>
<path class="st0" d="M85.9,127.2c0.1-0.2,0.3-0.3,0.4-0.4c1,1.1,2.1,2.2,3.1,3.2c-0.1,0.2-0.3,0.3-0.4,0.4c-0.8-0.8-1.6-1.7-2.4-2.5
	c0.1,0.4,0.2,0.7,0.3,1.1c-0.4-0.1-0.7-0.2-1.1-0.3c0.8,0.8,1.6,1.7,2.4,2.5c-0.1,0.1-0.3,0.3-0.4,0.4c-1-1.1-2.1-2.2-3.1-3.3
	c0.1-0.1,0.3-0.3,0.5-0.4c0.3,0,0.6,0.2,1,0.3C86,127.8,85.9,127.5,85.9,127.2"/>
<path class="st0" d="M79.5,128.4c0.7,0.2,1.4,0.4,2.2,0.7c0,0.2-0.1,0.3-0.2,0.5c-0.5-0.2-1.1-0.3-1.6-0.5c-0.1,0.4-0.3,0.9-0.4,1.3
	c0.4,0.2,0.9,0.3,1.3,0.4c0,0.2-0.1,0.4-0.1,0.5c-0.5-0.1-0.9-0.3-1.4-0.4c-0.1,0.4-0.3,0.9-0.4,1.3c0.5,0.2,1.1,0.3,1.6,0.5
	c0,0.2-0.1,0.4-0.2,0.5c-0.7-0.2-1.5-0.4-2.2-0.7C78.6,131.2,79.1,129.8,79.5,128.4"/>
<path class="st0" d="M83.6,130.7c0,0.5,0,1,0.1,1.5c0.2,0,0.5-0.1,0.7-0.2C84.1,131.5,83.9,131,83.6,130.7
	C83.6,130.5,83.5,130.6,83.6,130.7 M82.9,128.8c0.2,0,0.4-0.1,0.5-0.1c0.6,1.4,1.3,2.8,1.8,4.2c-0.2,0-0.4,0.1-0.5,0.1
	c-0.1-0.2-0.2-0.3-0.2-0.5c-0.3,0-0.6,0.1-0.9,0.2c0,0.2,0,0.4,0,0.5c-0.2,0.1-0.4,0.1-0.6,0.2C83,131.9,83,130.4,82.9,128.8"/>
</svg>
