<svg width="54" height="74" viewBox="0 0 54 74" fill="none" xmlns="http://www.w3.org/2000/svg">
<path opacity="0.8" fill-rule="evenodd" clip-rule="evenodd" d="M46.6408 25.8372C45.6067 25.8372 44.5933 25.8821 43.595 25.9542C44.6028 14.4884 40.4274 2.98347 33.709 2.98347C26.2268 2.98347 20.264 9.90936 16.4466 17.6146C16.5134 16.6718 16.5524 15.81 16.5524 15.0547C16.5524 3.57858 12.2999 0.838501 7.87709 0.838501C5.52968 0.838501 0.392578 2.14727 0.392578 4.20333C0.392578 6.25859 2.43374 5.79804 3.45432 14.8585C4.41285 23.3679 1.92384 59.4727 1.92384 64.2111C1.92384 75.1731 15.1333 75.3445 11.646 68.3217C9.44972 63.8996 11.9658 48.4723 14.1294 34.7887C18.1664 20.7351 32.3296 -2.48948 32.3296 20.6318C32.3193 23.7083 32.0083 26.3803 31.492 28.7038C21.0293 32.8288 14.4691 40.4483 14.4691 45.0234C14.4691 46.2985 15.7506 47.4174 17.9206 48.075C17.9222 48.075 17.923 48.0766 17.9254 48.0774C17.9429 48.0822 17.9628 48.0854 17.9803 48.091C18.2483 48.1703 18.5315 48.2408 18.825 48.3057C18.9046 48.3233 18.9849 48.3409 19.0677 48.357C19.3898 48.4226 19.7223 48.4819 20.0723 48.5292C20.0867 48.5308 20.1018 48.5316 20.1161 48.5332C20.4542 48.578 20.8073 48.6109 21.1693 48.6365C21.2655 48.6429 21.361 48.6493 21.4588 48.6549C21.843 48.6765 22.2344 48.6918 22.6425 48.6918C31.0529 48.6918 36.6084 44.4947 39.9 38.6485C37.1231 37.7371 30.8493 37.033 27.4431 37.8099C25.0758 40.8832 22.3863 42.3402 20.6793 42.8944C20.5973 42.9217 20.5154 42.9481 20.4375 42.9705C20.3905 42.9841 20.3444 42.9961 20.299 43.0082C19.4694 43.2332 18.9491 43.2156 18.9491 43.0602C18.9491 41.1259 24.3519 33.2797 45.0196 34.4179C50.074 34.6958 45.796 40.4323 47.6256 40.4323C49.9865 40.4323 61.0888 25.8372 46.6408 25.8372Z" fill="white"/>
</svg>
