<svg width="252" height="55" viewBox="0 0 252 55" fill="none" xmlns="http://www.w3.org/2000/svg">
<path d="M108.548 28.408H95.2997L104.437 10.3712H102.061L92.9241 28.408H79.584L88.721 10.3712H83.2388L88.5383 0H117.686L120.335 5.23069L108.548 28.408ZM97.4926 27.0553H107.726L118.782 5.23069L116.863 1.44295H89.3606L85.5231 9.10861H91.0053L81.8682 27.1455H92.1018L101.239 9.10861H106.63L97.4926 27.0553Z" fill="#1bdfcb"/>
<path d="M141.442 28.408H112.478L126.823 0H155.879L151.401 8.92824H133.858L133.036 10.5516H150.579L146.833 18.0368H129.29L128.467 19.6602H146.011L141.442 28.408ZM114.762 27.0553H140.62L143.726 20.8326H126.183L128.376 16.5037H145.919L148.295 11.724H130.752L132.945 7.39511H150.488L153.594 1.1724H127.736L114.762 27.0553Z" fill="#1bdfcb"/>
<path d="M175.066 28.408H145.462L159.898 0H183.563L186.213 5.23069L181.371 14.7902L170.406 19.1191L175.066 28.408ZM147.655 27.0553H172.873L168.487 18.3976L180.365 13.708L184.66 5.23069L182.741 1.44295H160.721L147.655 27.0553ZM173.604 11.9043H162.914L165.107 7.57548H175.797L173.604 11.9043ZM165.198 10.5516H172.782L173.604 8.92824H165.929L165.198 10.5516Z" fill="#1bdfcb"/>
<path d="M202.477 28.408H178.355L192.792 0H216.457L219.107 5.23069L209.696 23.7185L202.477 28.408ZM180.548 27.0553H202.112L208.599 22.7264L217.462 5.1405L215.543 1.35276H193.523L180.548 27.0553ZM204.213 16.4135H193.523L195.716 12.0847H206.406L204.213 16.4135ZM195.807 15.0608H203.391L204.213 13.4375H196.63L195.807 15.0608Z" fill="#1bdfcb"/>
<path d="M235.37 28.408H216.456L213.807 23.1774L215.725 19.4798H224.862L225.685 17.8565H216.548L223.218 4.68958L230.436 0H249.35L252 5.23069L250.081 8.92824H240.944L240.121 10.5516H249.258L242.588 23.7185L235.37 28.408ZM217.279 27.0553H234.913L241.401 22.7264L246.974 11.8141H237.837L240.03 7.48529H249.167L250.355 5.1405L248.436 1.35276H230.802L224.314 5.68161L218.741 16.5939H227.878L225.685 20.9227H216.548L215.36 23.2675L217.279 27.0553Z" fill="#1bdfcb"/>
<path d="M2.64975 28.4988L0 23.2682L6.12183 11.1835H15.2589L16.8122 8.29758H7.58376L9.41118 4.7804L16.5381 0.0908203H35.4518L38.1015 5.23132L31.9797 17.316H19.0051L17.5432 20.2019H30.5178L26.3147 28.4988H2.64975Z" fill="#1bdfcb"/>
<path d="M44.0402 28.4988L53.1773 10.462H39.4717L44.6798 0.0908203H73.6443L59.2077 28.4988H44.0402Z" fill="#1bdfcb"/>
<path d="M0 50.6707V48.8864H1.75377V38.9173H0V37.1329H5.61208V38.9173H3.83984V48.8864H5.61208V50.6707H0Z" fill="#1bdfcb"/>
<path d="M8.27072 50.6707V40.5852H10.2829V42.2532H10.3752C10.5845 41.7102 10.8983 41.2576 11.3168 40.8956C11.7475 40.5335 12.3321 40.3525 13.0705 40.3525C14.0551 40.3525 14.8181 40.6952 15.3597 41.3804C15.9135 42.0528 16.1904 43.0161 16.1904 44.2703V50.6707H14.1782V44.5419C14.1782 42.9644 13.5751 42.1757 12.369 42.1757C12.1106 42.1757 11.8521 42.2144 11.5937 42.292C11.3475 42.3567 11.126 42.4601 10.9291 42.6023C10.7322 42.7446 10.5722 42.9256 10.4491 43.1454C10.3383 43.3652 10.2829 43.6238 10.2829 43.9212V50.6707H8.27072Z" fill="#1bdfcb"/>
<path d="M27.5821 51.6211C27.5821 52.6685 27.2006 53.4572 26.4376 53.9873C25.6745 54.5175 24.4315 54.7825 22.7085 54.7825C21.9208 54.7825 21.2501 54.7243 20.6963 54.608C20.1548 54.5045 19.7055 54.3494 19.3486 54.1425C19.004 53.9356 18.7517 53.6835 18.5917 53.3861C18.4317 53.0887 18.3518 52.746 18.3518 52.3581C18.3518 51.8021 18.4933 51.369 18.7763 51.0587C19.0717 50.7483 19.4779 50.535 19.9948 50.4186V50.2053C19.2686 49.9596 18.9056 49.4424 18.9056 48.6536C18.9056 48.1364 19.0717 47.7421 19.404 47.4705C19.7363 47.1861 20.1363 46.9857 20.604 46.8693V46.7917C20.0378 46.5072 19.6009 46.1129 19.2933 45.6086C18.9979 45.0914 18.8502 44.4901 18.8502 43.8048C18.8502 42.7704 19.1763 41.9364 19.8286 41.3029C20.4932 40.6693 21.4409 40.3525 22.6716 40.3525C23.3485 40.3525 23.9269 40.4559 24.4069 40.6628V40.3913C24.4069 39.9387 24.5053 39.5896 24.7023 39.344C24.9115 39.0854 25.2315 38.956 25.6622 38.956H27.1391V40.6628H25.1822V41.0701C25.613 41.3675 25.9453 41.7554 26.1791 42.2338C26.413 42.6993 26.5299 43.223 26.5299 43.8048C26.5299 44.8263 26.1976 45.6539 25.533 46.2874C24.8684 46.9081 23.9208 47.2184 22.69 47.2184C22.2224 47.2184 21.8039 47.1667 21.4347 47.0632C21.1886 47.1538 20.9732 47.2831 20.7886 47.4511C20.604 47.6063 20.5117 47.8132 20.5117 48.0718C20.5117 48.3433 20.6286 48.5373 20.8624 48.6536C21.0963 48.77 21.4285 48.8282 21.8593 48.8282H24.2223C25.4038 48.8282 26.2591 49.0803 26.7883 49.5846C27.3175 50.076 27.5821 50.7548 27.5821 51.6211ZM25.6991 51.8539C25.6991 51.5047 25.5699 51.2267 25.3115 51.0199C25.0653 50.813 24.61 50.7095 23.9454 50.7095H20.6963C20.2532 50.9811 20.0317 51.369 20.0317 51.8732C20.0317 52.287 20.1855 52.6167 20.4932 52.8624C20.8132 53.121 21.3486 53.2503 22.0993 53.2503H23.3546C24.9176 53.2503 25.6991 52.7848 25.6991 51.8539ZM22.69 45.6862C23.2808 45.6862 23.7361 45.5504 24.0561 45.2789C24.3884 44.9944 24.5546 44.5613 24.5546 43.9794V43.5915C24.5546 43.0096 24.3884 42.583 24.0561 42.3114C23.7361 42.027 23.2808 41.8847 22.69 41.8847C22.0993 41.8847 21.6378 42.027 21.3055 42.3114C20.9855 42.583 20.8255 43.0096 20.8255 43.5915V43.9794C20.8255 44.5613 20.9855 44.9944 21.3055 45.2789C21.6378 45.5504 22.0993 45.6862 22.69 45.6862Z" fill="#1bdfcb"/>
<path d="M36.2436 50.6707C35.7144 50.6707 35.3082 50.5156 35.0252 50.2053C34.7421 49.882 34.5698 49.4747 34.5083 48.9834H34.416C34.2313 49.6169 33.8929 50.0954 33.4006 50.4186C32.9083 50.7419 32.3114 50.9035 31.6099 50.9035C30.613 50.9035 29.8438 50.632 29.3023 50.0889C28.7731 49.5458 28.5085 48.8153 28.5085 47.8972C28.5085 46.8887 28.8531 46.1323 29.5423 45.628C30.2438 45.1237 31.2653 44.8716 32.6068 44.8716H34.3421V44.0182C34.3421 43.3975 34.1821 42.9191 33.8621 42.583C33.5421 42.2468 33.0437 42.0787 32.3668 42.0787C31.8007 42.0787 31.3392 42.208 30.9822 42.4666C30.6253 42.7252 30.3238 43.0549 30.0777 43.4557L28.8777 42.3114C29.1977 41.7425 29.6469 41.277 30.2254 40.915C30.8038 40.54 31.5607 40.3525 32.496 40.3525C33.7391 40.3525 34.6929 40.6564 35.3575 41.2641C36.022 41.8718 36.3543 42.7446 36.3543 43.8824V48.9446H37.3697V50.6707H36.2436ZM32.1822 49.2937C32.8099 49.2937 33.3268 49.1515 33.7329 48.867C34.139 48.5696 34.3421 48.1752 34.3421 47.6839V46.2292H32.6437C31.253 46.2292 30.5576 46.6818 30.5576 47.5869V47.936C30.5576 48.3886 30.6992 48.7312 30.9822 48.964C31.2776 49.1838 31.6776 49.2937 32.1822 49.2937Z" fill="#1bdfcb"/>
<path d="M39.5264 50.6707V40.5852H41.5386V42.2532H41.6309C41.7294 41.9946 41.8463 41.749 41.9817 41.5162C42.1294 41.2835 42.3017 41.0831 42.4986 40.915C42.7078 40.7339 42.9478 40.5982 43.2186 40.5077C43.5016 40.4042 43.8278 40.3525 44.197 40.3525C44.8493 40.3525 45.4277 40.5206 45.9323 40.8568C46.4369 41.193 46.8061 41.7102 47.04 42.4084H47.0953C47.2676 41.8395 47.5999 41.3546 48.0922 40.9538C48.5845 40.5529 49.2183 40.3525 49.9937 40.3525C50.9536 40.3525 51.6982 40.6952 52.2274 41.3804C52.7566 42.0528 53.0213 43.0161 53.0213 44.2703V50.6707H51.009V44.5225C51.009 43.7467 50.8675 43.1648 50.5844 42.7769C50.3014 42.3761 49.8521 42.1757 49.2368 42.1757C48.9783 42.1757 48.7322 42.2144 48.4984 42.292C48.2645 42.3567 48.0553 42.4601 47.8707 42.6023C47.6984 42.7446 47.5569 42.9256 47.4461 43.1454C47.3353 43.3652 47.2799 43.6174 47.2799 43.9018V50.6707H45.2677V44.5225C45.2677 42.9579 44.6831 42.1757 43.5139 42.1757C43.2678 42.1757 43.0217 42.2144 42.7755 42.292C42.5417 42.3567 42.3325 42.4601 42.1479 42.6023C41.9632 42.7446 41.8156 42.9256 41.7048 43.1454C41.594 43.3652 41.5386 43.6174 41.5386 43.9018V50.6707H39.5264Z" fill="#1bdfcb"/>
<path d="M59.7564 50.9035C59.0672 50.9035 58.4518 50.7807 57.9103 50.535C57.3688 50.2893 56.9073 49.9402 56.5258 49.4876C56.1442 49.0222 55.8489 48.4662 55.6396 47.8197C55.4427 47.1602 55.3443 46.4297 55.3443 45.628C55.3443 44.8263 55.4427 44.1022 55.6396 43.4557C55.8489 42.7963 56.1442 42.2403 56.5258 41.7877C56.9073 41.3223 57.3688 40.9667 57.9103 40.721C58.4518 40.4753 59.0672 40.3525 59.7564 40.3525C60.4579 40.3525 61.0733 40.4818 61.6025 40.7404C62.144 40.999 62.5932 41.3611 62.9501 41.8265C63.307 42.2791 63.5716 42.8092 63.7439 43.4169C63.9285 44.0247 64.0209 44.6776 64.0209 45.3759V46.1711H57.4303V46.5008C57.4303 47.2766 57.6457 47.9166 58.0765 48.4209C58.5195 48.9122 59.1472 49.1579 59.9595 49.1579C60.5502 49.1579 61.0487 49.0222 61.4548 48.7506C61.8609 48.4791 62.2055 48.1106 62.4886 47.6451L63.6701 48.867C63.3132 49.4876 62.7963 49.9855 62.1194 50.3604C61.4425 50.7225 60.6548 50.9035 59.7564 50.9035ZM59.7564 42.0011C59.4118 42.0011 59.0918 42.0657 58.7964 42.195C58.5134 42.3243 58.2672 42.5054 58.058 42.7381C57.8611 42.9709 57.7073 43.2489 57.5965 43.5721C57.4857 43.8954 57.4303 44.2509 57.4303 44.6388V44.7746H61.8979V44.5807C61.8979 43.8048 61.7071 43.1842 61.3256 42.7187C60.944 42.2403 60.421 42.0011 59.7564 42.0011Z" fill="#1bdfcb"/>
<path d="M71.1281 37.1329H75.6879C76.5125 37.1329 77.2571 37.2751 77.9217 37.5596C78.5986 37.8441 79.1709 38.2708 79.6385 38.8397C80.1185 39.3957 80.4877 40.1004 80.7462 40.9538C81.0046 41.7942 81.1339 42.7769 81.1339 43.9018C81.1339 45.0267 81.0046 46.0159 80.7462 46.8693C80.4877 47.7097 80.1185 48.4144 79.6385 48.9834C79.1709 49.5394 78.5986 49.9596 77.9217 50.2441C77.2571 50.5285 76.5125 50.6707 75.6879 50.6707H71.1281V37.1329ZM75.6879 48.7312C76.6479 48.7312 77.4232 48.4144 78.014 47.7809C78.6047 47.1473 78.9001 46.2163 78.9001 44.988V42.8157C78.9001 41.5873 78.6047 40.6564 78.014 40.0228C77.4232 39.3892 76.6479 39.0724 75.6879 39.0724H73.2142V48.7312H75.6879Z" fill="#1bdfcb"/>
<path d="M90.8002 50.6707C90.271 50.6707 89.8649 50.5156 89.5818 50.2053C89.2988 49.882 89.1265 49.4747 89.0649 48.9834H88.9726C88.788 49.6169 88.4496 50.0954 87.9573 50.4186C87.465 50.7419 86.8681 50.9035 86.1666 50.9035C85.1697 50.9035 84.4005 50.632 83.859 50.0889C83.3298 49.5458 83.0652 48.8153 83.0652 47.8972C83.0652 46.8887 83.4098 46.1323 84.099 45.628C84.8005 45.1237 85.822 44.8716 87.1635 44.8716H88.8988V44.0182C88.8988 43.3975 88.7388 42.9191 88.4188 42.583C88.0988 42.2468 87.6004 42.0787 86.9235 42.0787C86.3573 42.0787 85.8958 42.208 85.5389 42.4666C85.182 42.7252 84.8805 43.0549 84.6343 43.4557L83.4344 42.3114C83.7544 41.7425 84.2036 41.277 84.782 40.915C85.3605 40.54 86.1174 40.3525 87.0527 40.3525C88.2957 40.3525 89.2495 40.6564 89.9141 41.2641C90.5787 41.8718 90.911 42.7446 90.911 43.8824V48.9446H91.9263V50.6707H90.8002ZM86.7389 49.2937C87.3665 49.2937 87.8834 49.1515 88.2896 48.867C88.6957 48.5696 88.8988 48.1752 88.8988 47.6839V46.2292H87.2004C85.8097 46.2292 85.1143 46.6818 85.1143 47.5869V47.936C85.1143 48.3886 85.2559 48.7312 85.5389 48.964C85.8343 49.1838 86.2343 49.2937 86.7389 49.2937Z" fill="#1bdfcb"/>
<path d="M96.6874 50.6707C95.9858 50.6707 95.4566 50.4833 95.0997 50.1083C94.7428 49.7204 94.5644 49.1773 94.5644 48.4791V42.3114H93.069V40.5852H93.8813C94.2136 40.5852 94.4413 40.5077 94.5644 40.3525C94.6997 40.1973 94.7674 39.9452 94.7674 39.5961V37.8311H96.5766V40.5852H98.5888V42.3114H96.5766V48.9446H98.4411V50.6707H96.6874Z" fill="#1bdfcb"/>
<path d="M107.99 50.6707C107.46 50.6707 107.054 50.5156 106.771 50.2053C106.488 49.882 106.316 49.4747 106.254 48.9834H106.162C105.977 49.6169 105.639 50.0954 105.147 50.4186C104.654 50.7419 104.058 50.9035 103.356 50.9035C102.359 50.9035 101.59 50.632 101.048 50.0889C100.519 49.5458 100.255 48.8153 100.255 47.8972C100.255 46.8887 100.599 46.1323 101.288 45.628C101.99 45.1237 103.011 44.8716 104.353 44.8716H106.088V44.0182C106.088 43.3975 105.928 42.9191 105.608 42.583C105.288 42.2468 104.79 42.0787 104.113 42.0787C103.547 42.0787 103.085 42.208 102.728 42.4666C102.371 42.7252 102.07 43.0549 101.824 43.4557L100.624 42.3114C100.944 41.7425 101.393 41.277 101.971 40.915C102.55 40.54 103.307 40.3525 104.242 40.3525C105.485 40.3525 106.439 40.6564 107.104 41.2641C107.768 41.8718 108.1 42.7446 108.1 43.8824V48.9446H109.116V50.6707H107.99ZM103.928 49.2937C104.556 49.2937 105.073 49.1515 105.479 48.867C105.885 48.5696 106.088 48.1752 106.088 47.6839V46.2292H104.39C102.999 46.2292 102.304 46.6818 102.304 47.5869V47.936C102.304 48.3886 102.445 48.7312 102.728 48.964C103.024 49.1838 103.424 49.2937 103.928 49.2937Z" fill="#1bdfcb"/>
<path d="M123.407 49.2937C123.247 49.4618 123.05 49.6428 122.817 49.8368C122.595 50.0178 122.33 50.1923 122.023 50.3604C121.727 50.5156 121.383 50.6449 120.989 50.7483C120.607 50.8518 120.171 50.9035 119.678 50.9035C119.014 50.9035 118.423 50.8065 117.906 50.6126C117.389 50.4186 116.952 50.1535 116.595 49.8174C116.251 49.4812 115.986 49.0868 115.801 48.6343C115.629 48.1688 115.543 47.671 115.543 47.1408C115.543 46.6624 115.611 46.2357 115.746 45.8607C115.894 45.4728 116.085 45.1302 116.318 44.8328C116.565 44.5225 116.841 44.2509 117.149 44.0182C117.469 43.7725 117.808 43.5462 118.164 43.3394C117.758 42.8868 117.414 42.3955 117.131 41.8653C116.848 41.3352 116.706 40.7663 116.706 40.1586C116.706 39.706 116.786 39.2793 116.946 38.8785C117.118 38.4776 117.358 38.135 117.666 37.8505C117.974 37.5531 118.343 37.3204 118.774 37.1523C119.217 36.9842 119.703 36.9002 120.232 36.9002C120.724 36.9002 121.18 36.9713 121.598 37.1135C122.017 37.2557 122.38 37.4562 122.687 37.7148C122.995 37.9734 123.229 38.2901 123.389 38.6651C123.561 39.0272 123.647 39.4345 123.647 39.887C123.647 40.3266 123.573 40.7275 123.426 41.0895C123.278 41.4386 123.075 41.7619 122.817 42.0593C122.558 42.3437 122.257 42.6153 121.912 42.8739C121.58 43.1196 121.223 43.3588 120.841 43.5915L123.352 46.4426C123.524 45.9771 123.66 45.4858 123.758 44.9686C123.857 44.4514 123.918 43.9277 123.943 43.3975H126.693V45.1819H125.438C125.253 46.1646 124.97 47.0374 124.589 47.8003L127.118 50.6707H124.607L123.407 49.2937ZM120.232 38.5875C119.789 38.5875 119.414 38.7298 119.106 39.0142C118.798 39.2858 118.644 39.6478 118.644 40.1004V40.2555C118.644 40.5917 118.743 40.9279 118.94 41.2641C119.149 41.6003 119.444 41.9882 119.826 42.4278C120.343 42.1304 120.786 41.8007 121.155 41.4386C121.524 41.0637 121.709 40.637 121.709 40.1586V40.0034C121.709 39.5508 121.574 39.2017 121.303 38.956C121.032 38.7104 120.675 38.5875 120.232 38.5875ZM119.918 49.0997C120.435 49.0997 120.891 49.0092 121.284 48.8282C121.678 48.6472 122.023 48.395 122.318 48.0718L119.18 44.5225C118.712 44.794 118.331 45.0979 118.035 45.434C117.752 45.7702 117.611 46.2292 117.611 46.8111V47.0632C117.611 47.6839 117.814 48.1817 118.22 48.5567C118.626 48.9187 119.192 49.0997 119.918 49.0997Z" fill="#1bdfcb"/>
<path d="M133.752 50.6707V37.1329H135.838V48.7312H141.081V50.6707H133.752Z" fill="#1bdfcb"/>
<path d="M144.269 38.7815C143.851 38.7815 143.543 38.6781 143.346 38.4712C143.161 38.2643 143.069 37.9992 143.069 37.676V37.3462C143.069 37.023 143.161 36.7579 143.346 36.551C143.543 36.3442 143.851 36.2407 144.269 36.2407C144.687 36.2407 144.989 36.3442 145.174 36.551C145.358 36.7579 145.451 37.023 145.451 37.3462V37.676C145.451 37.9992 145.358 38.2643 145.174 38.4712C144.989 38.6781 144.687 38.7815 144.269 38.7815ZM143.254 40.5852H145.266V50.6707H143.254V40.5852Z" fill="#1bdfcb"/>
<path d="M150.41 50.6707L147.142 40.5852H149.136L150.595 45.1819L151.573 48.7118H151.684L152.662 45.1819L154.158 40.5852H156.077L152.773 50.6707H150.41Z" fill="#1bdfcb"/>
<path d="M161.577 50.9035C160.888 50.9035 160.272 50.7807 159.731 50.535C159.189 50.2893 158.728 49.9402 158.346 49.4876C157.965 49.0222 157.669 48.4662 157.46 47.8197C157.263 47.1602 157.165 46.4297 157.165 45.628C157.165 44.8263 157.263 44.1022 157.46 43.4557C157.669 42.7963 157.965 42.2403 158.346 41.7877C158.728 41.3223 159.189 40.9667 159.731 40.721C160.272 40.4753 160.888 40.3525 161.577 40.3525C162.279 40.3525 162.894 40.4818 163.423 40.7404C163.965 40.999 164.414 41.3611 164.771 41.8265C165.128 42.2791 165.392 42.8092 165.565 43.4169C165.749 44.0247 165.841 44.6776 165.841 45.3759V46.1711H159.251V46.5008C159.251 47.2766 159.466 47.9166 159.897 48.4209C160.34 48.9122 160.968 49.1579 161.78 49.1579C162.371 49.1579 162.869 49.0222 163.275 48.7506C163.682 48.4791 164.026 48.1106 164.309 47.6451L165.491 48.867C165.134 49.4876 164.617 49.9855 163.94 50.3604C163.263 50.7225 162.475 50.9035 161.577 50.9035ZM161.577 42.0011C161.232 42.0011 160.912 42.0657 160.617 42.195C160.334 42.3243 160.088 42.5054 159.879 42.7381C159.682 42.9709 159.528 43.2489 159.417 43.5721C159.306 43.8954 159.251 44.2509 159.251 44.6388V44.7746H163.718V44.5807C163.718 43.8048 163.528 43.1842 163.146 42.7187C162.765 42.2403 162.242 42.0011 161.577 42.0011Z" fill="#1bdfcb"/>
<path d="M181.238 48.6149H181.164C181.028 49.2743 180.659 49.8238 180.056 50.2634C179.465 50.6901 178.678 50.9035 177.693 50.9035C176.93 50.9035 176.222 50.7548 175.57 50.4574C174.918 50.1471 174.352 49.701 173.872 49.1191C173.404 48.5243 173.035 47.7938 172.764 46.9275C172.506 46.0482 172.376 45.0397 172.376 43.9018C172.376 42.7769 172.512 41.7813 172.783 40.915C173.053 40.0357 173.435 39.2987 173.927 38.7039C174.419 38.1091 175.01 37.663 175.699 37.3656C176.389 37.0553 177.158 36.9002 178.007 36.9002C179.164 36.9002 180.142 37.1717 180.942 37.7148C181.742 38.2449 182.364 38.9884 182.807 39.9452L181.108 40.9925C180.862 40.359 180.481 39.8482 179.964 39.4603C179.447 39.0595 178.795 38.8591 178.007 38.8591C176.985 38.8591 176.161 39.2017 175.533 39.887C174.918 40.5723 174.61 41.5421 174.61 42.7963V45.0074C174.61 46.2616 174.918 47.2313 175.533 47.9166C176.161 48.6019 176.985 48.9446 178.007 48.9446C178.413 48.9446 178.801 48.8929 179.17 48.7894C179.539 48.673 179.859 48.5114 180.13 48.3045C180.413 48.0847 180.635 47.8197 180.795 47.5093C180.967 47.1861 181.053 46.8111 181.053 46.3844V45.3371H178.395V43.4557H183.065V50.6707H181.238V48.6149Z" fill="#1bdfcb"/>
<path d="M186.002 50.6707V40.5852H188.014V42.5248H188.106C188.242 42.0076 188.525 41.555 188.956 41.1671C189.386 40.7792 189.983 40.5852 190.746 40.5852H191.282V42.6217H190.488C189.688 42.6217 189.073 42.7575 188.642 43.029C188.223 43.3006 188.014 43.7014 188.014 44.2315V50.6707H186.002Z" fill="#1bdfcb"/>
<path d="M200.143 50.6707C199.614 50.6707 199.208 50.5156 198.924 50.2053C198.641 49.882 198.469 49.4747 198.408 48.9834H198.315C198.131 49.6169 197.792 50.0954 197.3 50.4186C196.808 50.7419 196.211 50.9035 195.509 50.9035C194.512 50.9035 193.743 50.632 193.202 50.0889C192.672 49.5458 192.408 48.8153 192.408 47.8972C192.408 46.8887 192.752 46.1323 193.442 45.628C194.143 45.1237 195.165 44.8716 196.506 44.8716H198.241V44.0182C198.241 43.3975 198.081 42.9191 197.761 42.583C197.441 42.2468 196.943 42.0787 196.266 42.0787C195.7 42.0787 195.238 42.208 194.882 42.4666C194.525 42.7252 194.223 43.0549 193.977 43.4557L192.777 42.3114C193.097 41.7425 193.546 41.277 194.125 40.915C194.703 40.54 195.46 40.3525 196.395 40.3525C197.638 40.3525 198.592 40.6564 199.257 41.2641C199.921 41.8718 200.254 42.7446 200.254 43.8824V48.9446H201.269V50.6707H200.143ZM196.082 49.2937C196.709 49.2937 197.226 49.1515 197.632 48.867C198.038 48.5696 198.241 48.1752 198.241 47.6839V46.2292H196.543C195.152 46.2292 194.457 46.6818 194.457 47.5869V47.936C194.457 48.3886 194.598 48.7312 194.882 48.964C195.177 49.1838 195.577 49.2937 196.082 49.2937Z" fill="#1bdfcb"/>
<path d="M203.426 40.5852H205.438V42.2532H205.53C205.739 41.6455 206.078 41.18 206.546 40.8568C207.026 40.5206 207.586 40.3525 208.226 40.3525C209.444 40.3525 210.385 40.818 211.05 41.749C211.715 42.667 212.047 43.96 212.047 45.628C212.047 47.296 211.715 48.5955 211.05 49.5264C210.385 50.4445 209.444 50.9035 208.226 50.9035C207.586 50.9035 207.026 50.7354 206.546 50.3992C206.078 50.063 205.739 49.5975 205.53 49.0028H205.438V54.5498H203.426V40.5852ZM207.616 49.0803C208.318 49.0803 208.878 48.8476 209.296 48.3821C209.715 47.9037 209.924 47.2766 209.924 46.5008V44.7552C209.924 43.9794 209.715 43.3588 209.296 42.8933C208.878 42.4149 208.318 42.1757 207.616 42.1757C207.001 42.1757 206.484 42.3373 206.066 42.6605C205.647 42.9709 205.438 43.3846 205.438 43.9018V47.3542C205.438 47.8714 205.647 48.2916 206.066 48.6149C206.484 48.9252 207.001 49.0803 207.616 49.0803Z" fill="#1bdfcb"/>
<path d="M214.535 36.3183H216.548V42.2532H216.64C216.849 41.7102 217.163 41.2576 217.581 40.8956C218.012 40.5335 218.597 40.3525 219.335 40.3525C220.32 40.3525 221.083 40.6952 221.624 41.3804C222.178 42.0528 222.455 43.0161 222.455 44.2703V50.6707H220.443V44.5225C220.443 42.9579 219.84 42.1757 218.634 42.1757C218.375 42.1757 218.117 42.2144 217.858 42.292C217.612 42.3567 217.391 42.4601 217.194 42.6023C216.997 42.7446 216.837 42.9256 216.714 43.1454C216.603 43.3652 216.548 43.6174 216.548 43.9018V50.6707H214.535V36.3183Z" fill="#1bdfcb"/>
<path d="M226.444 38.7815C226.026 38.7815 225.718 38.6781 225.521 38.4712C225.336 38.2643 225.244 37.9992 225.244 37.676V37.3462C225.244 37.023 225.336 36.7579 225.521 36.551C225.718 36.3442 226.026 36.2407 226.444 36.2407C226.862 36.2407 227.164 36.3442 227.349 36.551C227.533 36.7579 227.626 37.023 227.626 37.3462V37.676C227.626 37.9992 227.533 38.2643 227.349 38.4712C227.164 38.6781 226.862 38.7815 226.444 38.7815ZM225.429 40.5852H227.441V50.6707H225.429V40.5852Z" fill="#1bdfcb"/>
<path d="M234.21 50.9035C233.52 50.9035 232.905 50.7807 232.363 50.535C231.822 50.2893 231.367 49.9402 230.997 49.4876C230.628 49.0222 230.345 48.4662 230.148 47.8197C229.951 47.1602 229.853 46.4297 229.853 45.628C229.853 44.8263 229.951 44.1022 230.148 43.4557C230.345 42.7963 230.628 42.2403 230.997 41.7877C231.367 41.3223 231.822 40.9667 232.363 40.721C232.905 40.4753 233.52 40.3525 234.21 40.3525C235.169 40.3525 235.957 40.5788 236.573 41.0313C237.188 41.4839 237.637 42.0851 237.92 42.8351L236.259 43.6497C236.123 43.1842 235.883 42.8157 235.539 42.5442C235.206 42.2597 234.763 42.1175 234.21 42.1175C233.471 42.1175 232.911 42.3631 232.53 42.8545C232.16 43.3329 231.976 43.96 231.976 44.7358V46.5396C231.976 47.3154 232.16 47.949 232.53 48.4403C232.911 48.9187 233.471 49.1579 234.21 49.1579C234.8 49.1579 235.268 49.0092 235.613 48.7118C235.969 48.4015 236.253 47.9942 236.462 47.4899L237.994 48.3433C237.674 49.1709 237.194 49.8044 236.554 50.2441C235.914 50.6837 235.133 50.9035 234.21 50.9035Z" fill="#1bdfcb"/>
<path d="M243.14 50.9035C242.23 50.9035 241.466 50.7354 240.851 50.3992C240.236 50.063 239.7 49.5975 239.245 49.0028L240.537 47.7615C240.894 48.214 241.288 48.5696 241.719 48.8282C242.162 49.0739 242.673 49.1967 243.251 49.1967C243.842 49.1967 244.279 49.0803 244.562 48.8476C244.857 48.6019 245.005 48.2657 245.005 47.839C245.005 47.5158 244.9 47.2443 244.691 47.0245C244.494 46.7917 244.143 46.643 243.639 46.5784L242.753 46.462C241.768 46.3327 240.993 46.0353 240.426 45.5698C239.873 45.0914 239.596 44.3867 239.596 43.4557C239.596 42.9644 239.682 42.5312 239.854 42.1563C240.027 41.7684 240.266 41.4451 240.574 41.1865C240.894 40.915 241.27 40.7081 241.7 40.5659C242.143 40.4236 242.629 40.3525 243.159 40.3525C244.02 40.3525 244.722 40.4947 245.263 40.7792C245.817 41.0637 246.309 41.458 246.74 41.9623L245.503 43.2036C245.257 42.8933 244.931 42.6282 244.525 42.4084C244.131 42.1757 243.676 42.0593 243.159 42.0593C242.605 42.0593 242.193 42.1757 241.922 42.4084C241.663 42.6411 241.534 42.945 241.534 43.32C241.534 43.7079 241.651 43.9988 241.885 44.1928C242.119 44.3867 242.494 44.5289 243.011 44.6194L243.897 44.7358C244.956 44.9039 245.725 45.2336 246.205 45.725C246.697 46.2034 246.943 46.8499 246.943 47.6645C246.943 48.1558 246.851 48.6019 246.666 49.0028C246.494 49.3907 246.242 49.7268 245.909 50.0113C245.577 50.2958 245.177 50.5156 244.709 50.6707C244.242 50.8259 243.719 50.9035 243.14 50.9035Z" fill="#1bdfcb"/>
</svg>
