<svg width="263" height="30" viewBox="0 0 263 30" fill="none" xmlns="http://www.w3.org/2000/svg">
<path d="M182.405 30H151.524L166.524 0H191.214L193.952 5.47619L188.905 15.5714L177.476 20.1429L182.405 30ZM153.833 28.5714H180.095L175.5 19.381L187.881 14.4286L192.357 5.47619L190.333 1.42857H167.405L153.833 28.5714ZM180.929 12.5H169.81L172.071 7.97619H183.19L180.929 12.5ZM172.119 11.0714H180.048L180.881 9.40476H172.952L172.119 11.0714Z" fill="white"/>
<path d="M211 30H185.81L200.81 0H225.5L228.238 5.47619L218.476 25.0238L211 30ZM188.119 28.5714H210.548L217.357 24.0238L226.643 5.47619L224.619 1.42857H201.691L188.119 28.5714ZM212.833 17.2619H201.714L203.976 12.7381H215.095L212.833 17.2619ZM204.024 15.8333H211.952L212.786 14.1667H204.857L204.024 15.8333Z" fill="white"/>
<path d="M245.286 30H225.571L222.833 24.5238L224.81 20.5952H234.333L235.167 18.9286H225.643L232.619 4.97619L240.095 0H259.81L262.548 5.47619L260.571 9.40476H251.048L250.214 11.0714H259.738L252.762 25L245.286 30ZM226.452 28.5714H244.833L251.643 24.0238L257.405 12.5H247.881L250.143 7.97619H259.667L260.929 5.47619L258.905 1.42857H240.524L233.714 5.97619L227.952 17.5238H237.476L235.214 22.0476H225.691L224.429 24.5476L226.452 28.5714Z" fill="white"/>
<path d="M113.119 30H99.2857L108.81 10.9524H106.357L96.8333 30H82.9524L92.4762 10.9524H86.7619L92.2381 0H122.643L125.381 5.47619L113.119 30ZM101.619 28.5714H112.262L123.81 5.47619L121.786 1.42857H93.1191L89.0714 9.52381H94.7857L85.2619 28.5714H95.9524L105.476 9.52381H111.119L101.619 28.5714Z" fill="white"/>
<path d="M147.405 30H117.238L132.238 0H162.405L157.69 9.40476H139.429L138.595 11.0714H156.881L152.952 18.9286H134.69L133.857 20.5952H152.143L147.405 30ZM119.548 28.5714H146.524L149.809 22.0238H131.524L133.786 17.5H152.048L154.548 12.5H136.262L138.524 7.97619H156.786L160.095 1.42857H133.119L119.548 28.5714Z" fill="white"/>
<path d="M2.7381 30L0 24.5238L6.38095 11.7857H15.9048L17.4524 8.69048H7.90476L9.7619 5L17.2381 0H36.9524L39.6905 5.47619L33.3095 18.2143H19.8095L18.2619 21.3095H31.7857L27.4286 30H2.7381Z" fill="white"/>
<path d="M45.8334 30L55.3572 10.9524H41.0715L46.5477 0H76.7144L61.7144 30H45.8334Z" fill="white"/>
</svg>
